<svg width="54" height="50" viewBox="0 0 54 50" fill="none" xmlns="http://www.w3.org/2000/svg">
<path d="M15.75 28.125C16.6875 28.125 17.4848 27.8215 18.1418 27.2146C18.7988 26.6076 19.1265 25.8694 19.125 25C19.1235 24.1306 18.7958 23.3931 18.1418 22.7875C17.4878 22.1819 16.6905 21.8778 15.75 21.875C14.8095 21.8722 14.013 22.1764 13.3605 22.7875C12.708 23.3986 12.3795 24.1361 12.375 25C12.3705 25.8639 12.699 26.6021 13.3605 27.2146C14.022 27.8271 14.8185 28.1306 15.75 28.125ZM27 28.125C27.9375 28.125 28.7348 27.8215 29.3918 27.2146C30.0488 26.6076 30.3765 25.8694 30.375 25C30.3735 24.1306 30.0458 23.3931 29.3918 22.7875C28.7378 22.1819 27.9405 21.8778 27 21.875C26.0595 21.8722 25.263 22.1764 24.6105 22.7875C23.958 23.3986 23.6295 24.1361 23.625 25C23.6205 25.8639 23.949 26.6021 24.6105 27.2146C25.272 27.8271 26.0685 28.1306 27 28.125ZM38.25 28.125C39.1875 28.125 39.9848 27.8215 40.6418 27.2146C41.2988 26.6076 41.6265 25.8694 41.625 25C41.6235 24.1306 41.2958 23.3931 40.6418 22.7875C39.9878 22.1819 39.1905 21.8778 38.25 21.875C37.3095 21.8722 36.513 22.1764 35.8605 22.7875C35.208 23.3986 34.8795 24.1361 34.875 25C34.8705 25.8639 35.199 26.6021 35.8605 27.2146C36.522 27.8271 37.3185 28.1306 38.25 28.125ZM27 45.8333C23.8875 45.8333 20.9625 45.2861 18.225 44.1917C15.4875 43.0972 13.1063 41.6132 11.0813 39.7396C9.05625 37.866 7.4535 35.6611 6.273 33.125C5.0925 30.5889 4.5015 27.8806 4.5 25C4.4985 22.1194 5.0895 19.4111 6.273 16.875C7.4565 14.3389 9.05925 12.134 11.0813 10.2604C13.1033 8.3868 15.4845 6.90278 18.225 5.80833C20.9655 4.71389 23.8905 4.16666 27 4.16666C30.1095 4.16666 33.0345 4.71389 35.775 5.80833C38.5155 6.90278 40.8968 8.3868 42.9188 10.2604C44.9408 12.134 46.5443 14.3389 47.7293 16.875C48.9143 19.4111 49.5045 22.1194 49.5 25C49.4955 27.8806 48.9045 30.5889 47.727 33.125C46.5495 35.6611 44.9468 37.866 42.9188 39.7396C40.8908 41.6132 38.5095 43.0979 35.775 44.1938C33.0405 45.2896 30.1155 45.8361 27 45.8333Z" fill="white"/>
</svg>
