<svg width="54" height="50" viewBox="0 0 54 50" fill="none" xmlns="http://www.w3.org/2000/svg">
<g opacity="0.4" clip-path="url(#clip0_3_47)">
<path d="M10.9565 37.5V33.3333H54V37.5H10.9565ZM16.7555 17.5C15.5997 16.5625 14.7531 15.4514 14.2159 14.1667C13.6786 12.8819 13.4092 11.5625 13.4076 10.2083C13.4076 7.39583 14.514 4.99097 16.7268 2.99375C18.9395 0.996529 21.6393 -0.00138744 24.8261 1.44777e-06C26.2609 1.44777e-06 27.6359 0.225696 28.9511 0.677085C30.2663 1.12847 31.4421 1.7882 32.4783 2.65625C33.5145 1.7882 34.6902 1.12847 36.0055 0.677085C37.3207 0.225696 38.6957 1.44777e-06 40.1305 1.44777e-06C43.3587 1.44777e-06 46.0792 1.00695 48.292 3.02083C50.5047 5.03472 51.6103 7.44792 51.6087 10.2604C51.6087 11.6146 51.3194 12.9083 50.7407 14.1417C50.162 15.375 49.3354 16.4771 48.2609 17.4479L35.7663 28.0208C35.3279 28.4028 34.8297 28.6896 34.2718 28.8813C33.7138 29.0729 33.116 29.1681 32.4783 29.1667C31.8406 29.1653 31.2428 29.0701 30.6848 28.8813C30.1268 28.6924 29.6286 28.4056 29.1902 28.0208L16.7555 17.5Z" fill="#EE131E"/>
</g>
<defs>
<clipPath id="clip0_3_47">
<rect width="54" height="50" fill="white"/>
</clipPath>
</defs>
</svg>
