<svg width="35" height="20" viewBox="0 0 35 20" fill="none" xmlns="http://www.w3.org/2000/svg">
<path d="M31.5 15.5C32.3732 15.5 33.0923 15.72 33.6816 16.1406V16.1416C34.2697 16.5617 34.5008 17.0116 34.5 17.499C34.4993 17.927 34.3219 18.3262 33.8848 18.7012L33.6807 18.8604C33.1678 19.2284 32.5541 19.4433 31.8223 19.4902L31.501 19.5H14C13.2353 19.5 12.5894 19.3316 12.0459 19.0078L11.8193 18.8594C11.3064 18.4929 11.0648 18.1021 11.0117 17.6816L11 17.499C10.9993 17.0713 11.1759 16.6736 11.6143 16.3008L11.8184 16.1426C12.3357 15.7749 12.9512 15.5598 13.6807 15.5107L14.001 15.5H31.5ZM3.50098 15.5C4.26256 15.4987 4.90796 15.6676 5.4541 15.9932L5.68262 16.1416C6.19968 16.511 6.43992 16.9015 6.49023 17.3174L6.5 17.4971C6.49781 17.9247 6.31936 18.3247 5.88281 18.7012L5.67969 18.8613C5.16945 19.2301 4.55656 19.4443 3.82324 19.4902L3.50195 19.5H3.5C2.73531 19.5 2.08944 19.3316 1.5459 19.0078L1.31934 18.8594C0.80638 18.4929 0.564848 18.1021 0.511719 17.6816L0.5 17.499C0.499303 17.0713 0.675922 16.6736 1.11426 16.3008L1.31836 16.1426C1.83572 15.7749 2.45121 15.5598 3.18066 15.5107L3.50098 15.5ZM31.5 8C32.3732 8 33.0923 8.21996 33.6816 8.64062V8.6416C34.1964 9.00926 34.4377 9.3999 34.4893 9.81836L34.5 9.99902C34.4992 10.4881 34.2669 10.9395 33.6807 11.3604C33.1678 11.7284 32.5541 11.9433 31.8223 11.9902L31.501 12H14C13.2353 12 12.5894 11.8316 12.0459 11.5078L11.8193 11.3594C11.3064 10.9929 11.0648 10.6021 11.0117 10.1816L11 9.99902C10.9993 9.57126 11.1759 9.1736 11.6143 8.80078L11.8184 8.64258C12.3357 8.27492 12.9512 8.05982 13.6807 8.01074L14.001 8H31.5ZM3.50098 8C4.26255 7.99869 4.90796 8.16763 5.4541 8.49316L5.68262 8.6416C6.27346 9.0637 6.50236 9.51329 6.5 9.99707C6.49781 10.4247 6.31935 10.8247 5.88281 11.2012L5.67969 11.3613C5.16945 11.7301 4.55657 11.9443 3.82324 11.9902L3.50195 12H3.5C2.73531 12 2.08944 11.8316 1.5459 11.5078L1.31934 11.3594C0.806378 10.9929 0.564844 10.6021 0.511719 10.1816L0.5 9.99902C0.499307 9.57126 0.675921 9.1736 1.11426 8.80078L1.31836 8.64258C1.83572 8.27492 2.45121 8.05982 3.18066 8.01074L3.50098 8ZM31.5 0.5C32.3732 0.500001 33.0923 0.719964 33.6816 1.14062V1.1416C34.1964 1.50925 34.4377 1.8999 34.4893 2.31836L34.5 2.49902C34.4992 2.98808 34.2669 3.43948 33.6807 3.86035C33.1678 4.22844 32.5541 4.44327 31.8223 4.49023L31.501 4.5H14C13.2353 4.5 12.5894 4.33156 12.0459 4.00781L11.8193 3.85938C11.3064 3.49292 11.0648 3.10207 11.0117 2.68164L11 2.49902C10.9993 2.07127 11.1759 1.6736 11.6143 1.30078L11.8184 1.14258C12.3357 0.774915 12.9512 0.559818 13.6807 0.510742L14.001 0.5H31.5ZM3.50098 0.5C4.26255 0.498694 4.90796 0.667629 5.4541 0.993164L5.68262 1.1416C6.27346 1.5637 6.50235 2.0133 6.5 2.49707C6.49781 2.92472 6.31935 3.32467 5.88281 3.70117L5.67969 3.86133C5.16945 4.23008 4.55657 4.44433 3.82324 4.49023L3.50195 4.5H3.5C2.73531 4.5 2.08944 4.33156 1.5459 4.00781L1.31934 3.85938C0.806377 3.49292 0.56484 3.10207 0.511719 2.68164L0.5 2.49902C0.499312 2.07127 0.675921 1.6736 1.11426 1.30078L1.31836 1.14258C1.83572 0.774915 2.45121 0.559818 3.18066 0.510742L3.50098 0.5Z" fill="black" stroke="black"/>
</svg>
