<svg width="56" height="50" viewBox="0 0 56 50" fill="none" xmlns="http://www.w3.org/2000/svg">
<path d="M32.7808 21.0622C31.2185 21.0101 29.8993 20.4509 28.8234 19.3847C27.7474 18.3185 27.2367 17.0614 27.2914 15.6133C27.3461 14.1653 27.947 12.9461 29.0942 11.9557C30.2413 10.9654 31.598 10.4945 33.1642 10.5432C34.7304 10.5919 36.0486 11.1519 37.1187 12.2232C38.1888 13.2945 38.7004 14.5508 38.6535 15.9921C38.6067 17.4334 38.0048 18.6534 36.8478 19.6522C35.6909 20.651 34.3352 21.121 32.7808 21.0622ZM32.3973 31.5811C30.2669 31.5101 28.2814 31.027 26.4408 30.1319C24.6002 29.2368 23.0224 27.9993 21.7072 26.4196C23.401 25.4668 25.1683 24.7578 27.0092 24.2926C28.8501 23.8274 30.742 23.6271 32.6849 23.6919C34.6278 23.7567 36.4996 24.0824 38.3003 24.669C40.1009 25.2556 41.8133 26.0806 43.4373 27.144C42.0084 28.6323 40.3443 29.7616 38.4449 30.5321C36.5455 31.3025 34.5296 31.6522 32.3973 31.5811ZM4.45723 49.0801L18.2583 37.1655C20.1482 38.6327 22.25 39.7998 24.5637 40.6668C26.8774 41.5338 29.3608 42.0116 32.0139 42.1C38.3577 42.3115 43.8053 40.4526 48.3567 36.5233C52.9081 32.594 55.2909 27.6928 55.505 21.8197C55.7191 15.9467 53.699 10.8987 49.4448 6.67584C45.1905 2.45297 39.8915 0.235802 33.5476 0.0243174C27.2038 -0.187168 21.7562 1.67174 17.2048 5.60105C12.6534 9.53036 10.2706 14.4315 10.0565 20.3046C9.96707 22.759 10.3089 25.0856 11.0819 27.2845C11.8549 29.4833 12.9662 31.5055 14.4157 33.3513L0.614699 45.266L4.45723 49.0801ZM32.2056 36.8406C27.4714 36.6827 23.5032 35.0146 20.3011 31.8361C17.099 28.6576 15.5778 24.8769 15.7376 20.494C15.8974 16.1111 17.6901 12.4409 21.1159 9.48336C24.5417 6.52581 28.6217 5.12596 33.3559 5.28378C38.0901 5.44161 42.0583 7.10977 45.2604 10.2883C48.4625 13.4668 49.9837 17.2475 49.8239 21.6303C49.6642 26.0132 47.8714 29.6834 44.4456 32.641C41.0198 35.5985 36.9398 36.9984 32.2056 36.8406Z" fill="white"/>
</svg>
